<svg width="16" height="16" viewBox="0 0 16 16" fill="none" xmlns="http://www.w3.org/2000/svg">
<g clip-path="url(#clip0_260_1544)">
<path d="M10.6665 2.6665H11.9998C12.3535 2.6665 12.6926 2.80698 12.9426 3.05703C13.1927 3.30708 13.3332 3.64622 13.3332 3.99984V13.3332C13.3332 13.6868 13.1927 14.0259 12.9426 14.276C12.6926 14.526 12.3535 14.6665 11.9998 14.6665H3.99984C3.64622 14.6665 3.30708 14.526 3.05703 14.276C2.80698 14.0259 2.6665 13.6868 2.6665 13.3332V3.99984C2.6665 3.64622 2.80698 3.30708 3.05703 3.05703C3.30708 2.80698 3.64622 2.6665 3.99984 2.6665H5.33317" stroke="#747474" stroke-width="1.33333" stroke-linecap="round" stroke-linejoin="round"/>
<path d="M10.6668 1.3335H5.3335V4.00016H10.6668V1.3335Z" stroke="#747474" stroke-width="1.33333" stroke-linecap="round" stroke-linejoin="round"/>
</g>
<defs>
<clipPath id="clip0_260_1544">
<rect width="16" height="16" fill="white"/>
</clipPath>
</defs>
</svg>
