<svg width="15" height="15" viewBox="0 0 15 15" fill="none" xmlns="http://www.w3.org/2000/svg">
<g clip-path="url(#clip0_260_1454)">
<path d="M2.42383 13.8262L2.24705 14.0029H2.24705L2.42383 13.8262ZM1.875 12.5H1.625H1.875ZM1.875 2.5H1.625H1.875ZM3.75 0.625V0.375V0.625ZM3.75 1.875V1.625V1.875ZM3.125 2.5H2.875H3.125ZM3.125 12.5H2.875C2.875 12.508 2.87538 12.5159 2.87614 12.5239L3.125 12.5ZM3.13672 12.6221L2.88786 12.646C2.88867 12.6543 2.88989 12.6626 2.89153 12.6709L3.13672 12.6221ZM3.30762 12.9424L3.13084 13.1192L3.30762 12.9424ZM11.875 5.625H12.125C12.125 5.48693 12.0131 5.375 11.875 5.375V5.625ZM10 5.625V5.875V5.625ZM8.67383 5.07617L8.49705 5.25295L8.67383 5.07617ZM8.125 1.875H8.375C8.375 1.73693 8.26307 1.625 8.125 1.625V1.875ZM9.55762 4.19238L9.38084 4.36916L9.55762 4.19238ZM11.6152 4.375V4.625C11.7163 4.625 11.8075 4.56409 11.8462 4.47067C11.8849 4.37725 11.8635 4.26972 11.792 4.19822L11.6152 4.375ZM9.375 2.13477L9.55178 1.95799C9.48028 1.88649 9.37275 1.8651 9.27933 1.9038C9.18591 1.94249 9.125 2.03365 9.125 2.13477H9.375ZM9.375 0.625V0.875C9.4751 0.875 9.57073 0.914519 9.64061 0.984394L9.81738 0.807617L9.99416 0.63084C9.82961 0.466295 9.60642 0.375 9.375 0.375V0.625ZM9.81738 0.807617L9.64061 0.984394L12.7656 4.10939L12.9424 3.93262L13.1192 3.75584L9.99416 0.63084L9.81738 0.807617ZM12.9424 3.93262L12.7656 4.10939C12.8355 4.17927 12.875 4.2749 12.875 4.375H13.125H13.375C13.375 4.14358 13.2837 3.92039 13.1192 3.75584L12.9424 3.93262ZM13.125 4.375H12.875V12.5H13.125H13.375V4.375H13.125ZM13.125 12.5H12.875C12.875 12.9311 12.704 13.3448 12.3994 13.6494L12.5762 13.8262L12.7529 14.0029C13.1516 13.6043 13.375 13.0634 13.375 12.5H13.125ZM12.5762 13.8262L12.3994 13.6494C12.0948 13.954 11.6811 14.125 11.25 14.125V14.375V14.625C11.8134 14.625 12.3543 14.4016 12.7529 14.0029L12.5762 13.8262ZM11.25 14.375V14.125H3.75V14.375V14.625H11.25V14.375ZM3.75 14.375V14.125C3.31886 14.125 2.90523 13.954 2.6006 13.6494L2.42383 13.8262L2.24705 14.0029C2.64568 14.4016 3.18658 14.625 3.75 14.625V14.375ZM2.42383 13.8262L2.6006 13.6494C2.29598 13.3448 2.125 12.9311 2.125 12.5H1.875H1.625C1.625 13.0634 1.84842 13.6043 2.24705 14.0029L2.42383 13.8262ZM1.875 12.5H2.125V2.5H1.875H1.625V12.5H1.875ZM1.875 2.5H2.125C2.125 2.06886 2.29598 1.65523 2.6006 1.3506L2.42383 1.17383L2.24705 0.997051C1.84842 1.39568 1.625 1.93658 1.625 2.5H1.875ZM2.42383 1.17383L2.6006 1.3506C2.90523 1.04598 3.31886 0.875 3.75 0.875V0.625V0.375C3.18658 0.375 2.64568 0.598418 2.24705 0.997051L2.42383 1.17383ZM3.75 0.625V0.875H9.375V0.625V0.375H3.75V0.625ZM3.75 1.875V1.625C3.51858 1.625 3.29539 1.7163 3.13084 1.88084L3.30762 2.05762L3.48439 2.23439C3.55427 2.16452 3.6499 2.125 3.75 2.125V1.875ZM3.30762 2.05762L3.13084 1.88084C2.9663 2.04539 2.875 2.26858 2.875 2.5H3.125H3.375C3.375 2.3999 3.41452 2.30427 3.48439 2.23439L3.30762 2.05762ZM3.125 2.5H2.875V12.5H3.125H3.375V2.5H3.125ZM3.125 12.5L2.87614 12.5239L2.88786 12.646L3.13672 12.6221L3.38557 12.5982L3.37386 12.4761L3.125 12.5ZM3.13672 12.6221L2.89153 12.6709C2.92497 12.8389 3.00729 12.9956 3.13084 13.1192L3.30762 12.9424L3.48439 12.7656C3.43189 12.7131 3.39637 12.6459 3.38191 12.5733L3.13672 12.6221ZM3.30762 12.9424L3.13084 13.1192C3.29539 13.2837 3.51858 13.375 3.75 13.375V13.125V12.875C3.6499 12.875 3.55427 12.8355 3.48439 12.7656L3.30762 12.9424ZM3.75 13.125V13.375H11.25V13.125V12.875H3.75V13.125ZM11.25 13.125V13.375C11.4814 13.375 11.7046 13.2837 11.8692 13.1192L11.6924 12.9424L11.5156 12.7656C11.4457 12.8355 11.3501 12.875 11.25 12.875V13.125ZM11.6924 12.9424L11.8692 13.1192C12.0337 12.9546 12.125 12.7314 12.125 12.5H11.875H11.625C11.625 12.6001 11.5855 12.6957 11.5156 12.7656L11.6924 12.9424ZM11.875 12.5H12.125V5.625H11.875H11.625V12.5H11.875ZM11.875 5.625V5.375H10V5.625V5.875H11.875V5.625ZM10 5.625V5.375C9.56886 5.375 9.15523 5.20402 8.85061 4.89939L8.67383 5.07617L8.49705 5.25295C8.89568 5.65158 9.43658 5.875 10 5.875V5.625ZM8.67383 5.07617L8.85061 4.89939C8.54598 4.59477 8.375 4.18114 8.375 3.75H8.125H7.875C7.875 4.31342 8.09842 4.85432 8.49705 5.25295L8.67383 5.07617ZM8.125 3.75H8.375V1.875H8.125H7.875V3.75H8.125ZM8.125 1.875V1.625H3.75V1.875V2.125H8.125V1.875ZM9.375 3.75H9.125C9.125 3.98142 9.2163 4.20461 9.38084 4.36916L9.55762 4.19238L9.73439 4.01561C9.66452 3.94573 9.625 3.8501 9.625 3.75H9.375ZM9.55762 4.19238L9.38084 4.36916C9.54539 4.5337 9.76858 4.625 10 4.625V4.375V4.125C9.8999 4.125 9.80427 4.08548 9.73439 4.01561L9.55762 4.19238ZM10 4.375V4.625H11.6152V4.375V4.125H10V4.375ZM11.6152 4.375L11.792 4.19822L9.55178 1.95799L9.375 2.13477L9.19822 2.31154L11.4385 4.55178L11.6152 4.375ZM9.375 2.13477H9.125V3.75H9.375H9.625V2.13477H9.375Z" fill="white" fill-opacity="0.6"/>
<path d="M6.25 5C6.59518 5 6.875 5.27982 6.875 5.625C6.875 5.97018 6.59518 6.25 6.25 6.25H5C4.65482 6.25 4.375 5.97018 4.375 5.625C4.375 5.27982 4.65482 5 5 5H6.25Z" stroke="white" stroke-opacity="0.6" stroke-width="0.5" stroke-linecap="round" stroke-linejoin="round"/>
<path d="M10 7.5C10.3452 7.5 10.625 7.77982 10.625 8.125C10.625 8.47018 10.3452 8.75 10 8.75H5C4.65482 8.75 4.375 8.47018 4.375 8.125C4.375 7.77982 4.65482 7.5 5 7.5H10Z" stroke="white" stroke-opacity="0.6" stroke-width="0.5" stroke-linecap="round" stroke-linejoin="round"/>
<path d="M10 10C10.3452 10 10.625 10.2798 10.625 10.625C10.625 10.9702 10.3452 11.25 10 11.25H5C4.65482 11.25 4.375 10.9702 4.375 10.625C4.375 10.2798 4.65482 10 5 10H10Z" stroke="white" stroke-opacity="0.6" stroke-width="0.5" stroke-linecap="round" stroke-linejoin="round"/>
</g>
<defs>
<clipPath id="clip0_260_1454">
<rect width="15" height="15" fill="white"/>
</clipPath>
</defs>
</svg>
