<svg width="17" height="17" viewBox="0 0 17 17" fill="none" xmlns="http://www.w3.org/2000/svg">
<path d="M15.3995 12.4915C16.1995 13.3089 16.1995 14.6219 15.3995 15.4306C14.5908 16.248 13.2864 16.248 12.4777 15.4306L9.3125 12.2393L10.556 10.9872C10.6342 10.9263 10.7038 10.8567 10.7734 10.7872C11.3212 10.2393 11.6429 9.53499 11.6951 8.76978C11.6951 8.76978 15.3995 12.4915 15.3995 12.4915Z" stroke="#93D5DB" stroke-width="0.8"/>
<path d="M10.5647 6.01331L9.3125 4.75244L12.4777 1.56983C13.2864 0.752439 14.5908 0.752439 15.3995 1.56983C16.1995 2.37853 16.1995 3.69157 15.3995 4.50896L11.6951 8.2307C11.6429 7.47418 11.3212 6.76114 10.7734 6.20461C10.7038 6.14374 10.6342 6.08288 10.5647 6.01331Z" stroke="#93D5DB" stroke-width="0.8"/>
<path d="M10.5652 8.50031C10.5652 9.03944 10.3652 9.56988 9.95652 9.97857L8.50435 11.4307L4.52174 15.4307C4.12174 15.8394 3.5913 16.0394 3.06087 16.0394C2.53044 16.0394 2.0087 15.8394 1.6 15.4307C0.800001 14.6221 0.800001 13.309 1.6 12.4916L5.57391 8.50031L1.6 4.50901C0.8 3.69162 0.8 2.37857 1.6 1.56988C2.0087 1.16118 2.53043 0.961182 3.06087 0.961182C3.5913 0.961182 4.12174 1.16118 4.52174 1.56988L8.49565 5.56988C8.49565 5.56988 9.90435 6.96988 9.95652 7.02205C10.3652 7.43075 10.5652 7.96988 10.5652 8.50031Z" stroke="white" stroke-width="0.8"/>
<mask id="path-4-inside-1_255_1418" fill="white">
<path d="M8.2774 13.9872L7.82523 13.5264L5.55566 15.8046L6.00784 16.2655L8.2774 13.9872Z"/>
</mask>
<path d="M8.2774 13.9872L9.31884 15.0247L10.3445 13.9951L9.3267 12.9577L8.2774 13.9872ZM7.82523 13.5264L8.87453 12.4969L7.83319 11.4355L6.7838 12.4889L7.82523 13.5264ZM5.55566 15.8046L4.51423 14.7672L3.48857 15.7968L4.50637 16.8341L5.55566 15.8046ZM6.00784 16.2655L4.95854 17.295L5.99988 18.3564L7.04927 17.303L6.00784 16.2655ZM8.2774 13.9872L9.3267 12.9577L8.87453 12.4969L7.82523 13.5264L6.77593 14.5559L7.22811 15.0167L8.2774 13.9872ZM7.82523 13.5264L6.7838 12.4889L4.51423 14.7672L5.55566 15.8046L6.5971 16.8421L8.86666 14.5638L7.82523 13.5264ZM5.55566 15.8046L4.50637 16.8341L4.95854 17.295L6.00784 16.2655L7.05714 15.236L6.60496 14.7751L5.55566 15.8046ZM6.00784 16.2655L7.04927 17.303L9.31884 15.0247L8.2774 13.9872L7.23597 12.9498L4.96641 15.228L6.00784 16.2655Z" fill="#93D5DB" mask="url(#path-4-inside-1_255_1418)"/>
<mask id="path-6-inside-2_255_1418" fill="white">
<path d="M8.42584 3.01312L6.15628 0.734863L5.7041 1.19573L7.97367 3.47399C7.97367 3.47399 8.42584 3.01312 8.42584 3.01312Z"/>
</mask>
<path d="M8.42584 3.01312H9.89584V2.40588L9.46727 1.97567L8.42584 3.01312ZM6.15628 0.734863L7.19771 -0.302594L6.14832 -1.35601L5.10698 -0.294637L6.15628 0.734863ZM5.7041 1.19573L4.6548 0.166232L3.63701 1.2036L4.66267 2.23319L5.7041 1.19573ZM7.97367 3.47399L6.93223 4.51145L7.98162 5.56486L9.02297 4.50349L7.97367 3.47399ZM8.42584 3.01312L9.46727 1.97567L7.19771 -0.302594L6.15628 0.734863L5.11484 1.77232L7.38441 4.05058L8.42584 3.01312ZM6.15628 0.734863L5.10698 -0.294637L4.6548 0.166232L5.7041 1.19573L6.7534 2.22523L7.20557 1.76436L6.15628 0.734863ZM5.7041 1.19573L4.66267 2.23319L6.93223 4.51145L7.97367 3.47399L9.0151 2.43654L6.74553 0.158275L5.7041 1.19573ZM7.97367 3.47399C9.02297 4.50349 9.02297 4.50349 9.02297 4.50349C9.02297 4.50349 9.02298 4.50348 9.02299 4.50347C9.023 4.50346 9.02302 4.50344 9.02305 4.50341C9.0231 4.50336 9.02318 4.50327 9.02329 4.50316C9.02351 4.50294 9.02384 4.50261 9.02426 4.50217C9.02512 4.5013 9.02639 4.50001 9.02804 4.49832C9.03136 4.49494 9.03621 4.48999 9.0424 4.48369C9.05476 4.47109 9.07242 4.45309 9.09362 4.43148C9.13601 4.38828 9.19253 4.33067 9.24905 4.27306C9.30557 4.21545 9.3621 4.15784 9.40449 4.11464C9.42568 4.09303 9.44335 4.07503 9.45571 4.06243C9.46189 4.05613 9.46675 4.05117 9.47006 4.0478C9.47172 4.04611 9.47299 4.04482 9.47385 4.04394C9.47428 4.04351 9.4746 4.04317 9.47482 4.04295C9.47493 4.04284 9.47502 4.04275 9.47508 4.04269C9.47511 4.04266 9.47514 4.04263 9.47516 4.0426C9.47517 4.04259 9.4752 4.04256 9.47522 4.04254C9.47526 4.0425 9.78665 3.56908 9.89584 3.01312H8.42584H6.95584C7.06503 2.45716 7.37641 1.98375 7.37645 1.98371C7.37646 1.9837 7.37648 1.98369 7.37648 1.98369C7.37648 1.98369 7.37647 1.98369 7.37647 1.9837C7.37646 1.98371 7.37645 1.98372 7.37644 1.98373C7.37639 1.98378 7.37631 1.98386 7.3762 1.98397C7.37599 1.98419 7.37567 1.98452 7.37524 1.98495C7.37439 1.98582 7.37312 1.98711 7.37146 1.9888C7.36815 1.99218 7.36329 1.99713 7.35711 2.00343C7.34475 2.01603 7.32708 2.03403 7.30589 2.05563C7.2635 2.09884 7.20698 2.15645 7.15045 2.21406C7.09393 2.27167 7.03741 2.32928 6.99502 2.37248C6.97382 2.39409 6.95616 2.41209 6.9438 2.42469C6.93762 2.43099 6.93276 2.43594 6.92945 2.43932C6.92779 2.441 6.92652 2.4423 6.92567 2.44317C6.92524 2.44361 6.92491 2.44394 6.9247 2.44416C6.92459 2.44427 6.9245 2.44435 6.92445 2.44441C6.92442 2.44444 6.9244 2.44446 6.92439 2.44447C6.92438 2.44448 6.92438 2.44448 6.92437 2.44449C6.92437 2.44449 6.92437 2.44449 7.97367 3.47399Z" fill="#93D5DB" mask="url(#path-6-inside-2_255_1418)"/>
</svg>
