<svg width="16" height="16" viewBox="0 0 16 16" fill="none" xmlns="http://www.w3.org/2000/svg">
<g clip-path="url(#clip0_260_1539)">
<path d="M14 11.3334C13.9989 10.1756 13.6629 9.04286 13.0325 8.07176C12.4021 7.10067 11.5041 6.33271 10.447 5.86053C9.38987 5.38835 8.2187 5.2321 7.07476 5.41064C5.93082 5.58918 4.86297 6.09488 4 6.86674L2 8.66674" stroke="#747474" stroke-width="1.33333" stroke-linecap="round" stroke-linejoin="round"/>
<path d="M2 4.6665V8.6665H6" stroke="#747474" stroke-width="1.33333" stroke-linecap="round" stroke-linejoin="round"/>
<path d="M8.00016 11.9998C8.36835 11.9998 8.66683 11.7014 8.66683 11.3332C8.66683 10.965 8.36835 10.6665 8.00016 10.6665C7.63197 10.6665 7.3335 10.965 7.3335 11.3332C7.3335 11.7014 7.63197 11.9998 8.00016 11.9998Z" stroke="#747474" stroke-width="1.33333" stroke-linecap="round" stroke-linejoin="round"/>
</g>
<defs>
<clipPath id="clip0_260_1539">
<rect width="16" height="16" fill="white"/>
</clipPath>
</defs>
</svg>
