<svg width="16" height="16" viewBox="0 0 16 16" fill="none" xmlns="http://www.w3.org/2000/svg">
<g clip-path="url(#clip0_260_1554)">
<g clip-path="url(#clip1_260_1554)">
<path d="M4.6665 6.6665V14.6665" stroke="#747474" stroke-width="1.33333" stroke-linecap="round" stroke-linejoin="round"/>
<path d="M10.0002 3.92016L9.3335 6.66683H13.2202C13.4272 6.66683 13.6313 6.71502 13.8164 6.80759C14.0016 6.90016 14.1626 7.03457 14.2868 7.20016C14.411 7.36576 14.495 7.55799 14.532 7.76165C14.569 7.9653 14.5581 8.17478 14.5002 8.3735L12.9468 13.7068C12.8661 13.9838 12.6976 14.2271 12.4668 14.4002C12.236 14.5733 11.9553 14.6668 11.6668 14.6668H2.66683C2.31321 14.6668 1.97407 14.5264 1.72402 14.2763C1.47397 14.0263 1.3335 13.6871 1.3335 13.3335V8.00016C1.3335 7.64654 1.47397 7.3074 1.72402 7.05735C1.97407 6.80731 2.31321 6.66683 2.66683 6.66683H4.50683C4.75489 6.6667 4.99799 6.59737 5.2088 6.46664C5.41961 6.33592 5.58978 6.14897 5.70016 5.92683L8.00016 1.3335C8.31455 1.33739 8.62399 1.41228 8.90537 1.55256C9.18674 1.69284 9.43278 1.8949 9.6251 2.14363C9.81742 2.39236 9.95104 2.68134 10.016 2.98896C10.0809 3.29659 10.0755 3.61492 10.0002 3.92016Z" stroke="#747474" stroke-width="1.33333" stroke-linecap="round" stroke-linejoin="round"/>
</g>
</g>
<defs>
<clipPath id="clip0_260_1554">
<rect width="16" height="16" fill="white"/>
</clipPath>
<clipPath id="clip1_260_1554">
<rect width="16" height="16" fill="white"/>
</clipPath>
</defs>
</svg>
