<svg width="16" height="16" viewBox="0 0 16 16" fill="none" xmlns="http://www.w3.org/2000/svg">
<g clip-path="url(#clip0_260_1558)">
<g clip-path="url(#clip1_260_1558)">
<path d="M11.3335 9.3335V1.3335" stroke="#747474" stroke-width="1.33333" stroke-linecap="round" stroke-linejoin="round"/>
<path d="M6.00011 12.0802L6.66678 9.3335H2.78011C2.57312 9.3335 2.36897 9.2853 2.18383 9.19273C1.99869 9.10016 1.83764 8.96576 1.71344 8.80016C1.58925 8.63457 1.50531 8.44233 1.46828 8.23868C1.43126 8.03502 1.44215 7.82554 1.50011 7.62683L3.05344 2.2935C3.13422 2.01654 3.30265 1.77326 3.53344 1.60016C3.76424 1.42707 4.04495 1.3335 4.33344 1.3335H13.3334C13.6871 1.3335 14.0262 1.47397 14.2763 1.72402C14.5263 1.97407 14.6668 2.31321 14.6668 2.66683V8.00016C14.6668 8.35378 14.5263 8.69292 14.2763 8.94297C14.0262 9.19302 13.6871 9.3335 13.3334 9.3335H11.4934C11.2454 9.33363 11.0023 9.40295 10.7915 9.53368C10.5807 9.66441 10.4105 9.85135 10.3001 10.0735L8.00011 14.6668C7.68573 14.6629 7.37629 14.588 7.09491 14.4478C6.81353 14.3075 6.56749 14.1054 6.37517 13.8567C6.18286 13.608 6.04923 13.319 5.98429 13.0114C5.91934 12.7037 5.92475 12.3854 6.00011 12.0802Z" stroke="#747474" stroke-width="1.33333" stroke-linecap="round" stroke-linejoin="round"/>
</g>
</g>
<defs>
<clipPath id="clip0_260_1558">
<rect width="16" height="16" fill="white"/>
</clipPath>
<clipPath id="clip1_260_1558">
<rect width="16" height="16" fill="white"/>
</clipPath>
</defs>
</svg>
