<svg width="15" height="15" viewBox="0 0 15 15" fill="none" xmlns="http://www.w3.org/2000/svg">
<g clip-path="url(#clip0_260_1472)">
<path d="M5 7.5V7.25C4.86193 7.25 4.75 7.36193 4.75 7.5H5ZM5 9.375H4.75C4.75 9.38298 4.75038 9.39095 4.75114 9.39889L5 9.375ZM5.01172 9.49707L4.76286 9.52096C4.76367 9.52932 4.76489 9.53764 4.76653 9.54588L5.01172 9.49707ZM5.18262 9.81738L5.00584 9.99416L5.18262 9.81738ZM7.5 10V10.25C7.63807 10.25 7.75 10.1381 7.75 10H7.5ZM7.5 11.25H7.75C7.75 11.1119 7.63807 11 7.5 11V11.25ZM4.29883 10.7012L4.12205 10.8779L4.29883 10.7012ZM3.75 9.375H3.5H3.75ZM3.75 7.5H4C4 7.36193 3.88807 7.25 3.75 7.25V7.5ZM1.25 1.875H1H1.25ZM8.75 12.5H8.5C8.5 12.6381 8.61193 12.75 8.75 12.75V12.5ZM12.5 12.5V12.75C12.6381 12.75 12.75 12.6381 12.75 12.5H12.5ZM12.5 8.75H12.75C12.75 8.61193 12.6381 8.5 12.5 8.5V8.75ZM8.75 8.75V8.5C8.61193 8.5 8.5 8.61193 8.5 8.75H8.75ZM2.5 6.25H2.25C2.25 6.38807 2.36193 6.5 2.5 6.5V6.25ZM6.25 6.25V6.5C6.38807 6.5 6.5 6.38807 6.5 6.25H6.25ZM6.25 2.5H6.5C6.5 2.36193 6.38807 2.25 6.25 2.25V2.5ZM2.5 2.5V2.25C2.36193 2.25 2.25 2.36193 2.25 2.5H2.5ZM6.875 1.25V1.5C7.08211 1.5 7.25 1.66789 7.25 1.875H7.5H7.75C7.75 1.39175 7.35825 1 6.875 1V1.25ZM7.5 1.875H7.25V6.875H7.5H7.75V1.875H7.5ZM7.5 6.875H7.25C7.25 7.08211 7.08211 7.25 6.875 7.25V7.5V7.75C7.35825 7.75 7.75 7.35825 7.75 6.875H7.5ZM6.875 7.5V7.25H5V7.5V7.75H6.875V7.5ZM5 7.5H4.75V9.375H5H5.25V7.5H5ZM5 9.375L4.75114 9.39889L4.76286 9.52096L5.01172 9.49707L5.26057 9.47318L5.24886 9.35111L5 9.375ZM5.01172 9.49707L4.76653 9.54588C4.79997 9.71389 4.88229 9.87061 5.00584 9.99416L5.18262 9.81738L5.35939 9.64061C5.30689 9.5881 5.27137 9.52089 5.25691 9.44826L5.01172 9.49707ZM5.18262 9.81738L5.00584 9.99416C5.17039 10.1587 5.39358 10.25 5.625 10.25V10V9.75C5.5249 9.75 5.42927 9.71048 5.35939 9.64061L5.18262 9.81738ZM5.625 10V10.25H7.5V10V9.75H5.625V10ZM7.5 10H7.75V8.125H7.5H7.25V10H7.5ZM7.5 8.125H7.75C7.75 7.91789 7.91789 7.75 8.125 7.75V7.5V7.25C7.64175 7.25 7.25 7.64175 7.25 8.125H7.5ZM8.125 7.5V7.75H13.125V7.5V7.25H8.125V7.5ZM13.125 7.5V7.75C13.3321 7.75 13.5 7.91789 13.5 8.125H13.75H14C14 7.64175 13.6082 7.25 13.125 7.25V7.5ZM13.75 8.125H13.5V13.125H13.75H14V8.125H13.75ZM13.75 13.125H13.5C13.5 13.3321 13.3321 13.5 13.125 13.5V13.75V14C13.6082 14 14 13.6082 14 13.125H13.75ZM13.125 13.75V13.5H8.125V13.75V14H13.125V13.75ZM8.125 13.75V13.5C7.91789 13.5 7.75 13.3321 7.75 13.125H7.5H7.25C7.25 13.6082 7.64175 14 8.125 14V13.75ZM7.5 13.125H7.75V11.25H7.5H7.25V13.125H7.5ZM7.5 11.25V11H5.625V11.25V11.5H7.5V11.25ZM5.625 11.25V11C5.19386 11 4.78023 10.829 4.4756 10.5244L4.29883 10.7012L4.12205 10.8779C4.52068 11.2766 5.06158 11.5 5.625 11.5V11.25ZM4.29883 10.7012L4.4756 10.5244C4.17098 10.2198 4 9.80614 4 9.375H3.75H3.5C3.5 9.93842 3.72342 10.4793 4.12205 10.8779L4.29883 10.7012ZM3.75 9.375H4V7.5H3.75H3.5V9.375H3.75ZM3.75 7.5V7.25H1.875V7.5V7.75H3.75V7.5ZM1.875 7.5V7.25C1.66789 7.25 1.5 7.08211 1.5 6.875H1.25H1C1 7.35825 1.39175 7.75 1.875 7.75V7.5ZM1.25 6.875H1.5V1.875H1.25H1V6.875H1.25ZM1.25 1.875H1.5C1.5 1.66789 1.66789 1.5 1.875 1.5V1.25V1C1.39175 1 1 1.39175 1 1.875H1.25ZM1.875 1.25V1.5H6.875V1.25V1H1.875V1.25ZM8.75 12.5V12.75H12.5V12.5V12.25H8.75V12.5ZM12.5 12.5H12.75V8.75H12.5H12.25V12.5H12.5ZM12.5 8.75V8.5H8.75V8.75V9H12.5V8.75ZM8.75 8.75H8.5V12.5H8.75H9V8.75H8.75ZM2.5 6.25V6.5H6.25V6.25V6H2.5V6.25ZM6.25 6.25H6.5V2.5H6.25H6V6.25H6.25ZM6.25 2.5V2.25H2.5V2.5V2.75H6.25V2.5ZM2.5 2.5H2.25V6.25H2.5H2.75V2.5H2.5Z" fill="white" fill-opacity="0.6"/>
</g>
<defs>
<clipPath id="clip0_260_1472">
<rect width="15" height="15" fill="white"/>
</clipPath>
</defs>
</svg>
